<svg width="32" height="32" viewBox="0 0 32 32" fill="none" xmlns="http://www.w3.org/2000/svg">
<rect width="32" height="32" rx="16" fill="white"/>
<path d="M21.2647 16.6999C21.1102 16.6999 20.9486 16.6507 20.7941 16.6156C20.4811 16.5466 20.1735 16.455 19.8738 16.3416C19.5478 16.223 19.1896 16.2292 18.868 16.3589C18.5463 16.4886 18.284 16.7326 18.1315 17.0441L17.9769 17.3602C17.2927 16.9796 16.6639 16.5068 16.1082 15.9552C15.5566 15.3995 15.0838 14.7707 14.7032 14.0865L14.9983 13.8898C15.3097 13.7373 15.5538 13.475 15.6835 13.1533C15.8132 12.8317 15.8193 12.4734 15.7008 12.1475C15.5892 11.8471 15.4977 11.5397 15.4268 11.2272C15.3917 11.0727 15.3636 10.9111 15.3425 10.7495C15.2572 10.2547 14.998 9.80654 14.6116 9.48583C14.2252 9.16513 13.737 8.99292 13.2349 9.00022H11.1274C10.8246 8.99738 10.5248 9.05981 10.2483 9.18325C9.97182 9.3067 9.7252 9.48826 9.5252 9.71559C9.32521 9.94291 9.17655 10.2107 9.08933 10.5006C9.00211 10.7906 8.9784 11.0959 9.01979 11.3958C9.39405 14.339 10.7382 17.0735 12.8399 19.1676C14.9415 21.2616 17.681 22.5958 20.6255 22.9593H20.8924C21.4105 22.9601 21.9106 22.77 22.2975 22.4254C22.5197 22.2266 22.6972 21.983 22.8184 21.7105C22.9395 21.438 23.0014 21.1429 23 20.8447V18.7372C22.9914 18.2492 22.8137 17.7793 22.4972 17.4078C22.1807 17.0362 21.7451 16.786 21.2647 16.6999ZM21.616 20.915C21.6159 21.0147 21.5945 21.1133 21.5533 21.2042C21.5121 21.295 21.4521 21.3761 21.3772 21.4419C21.2989 21.51 21.2071 21.5609 21.1079 21.5912C21.0086 21.6214 20.9041 21.6304 20.8011 21.6175C18.1701 21.2802 15.7262 20.0765 13.855 18.1964C11.9839 16.3164 10.7918 13.8668 10.467 11.2342C10.4558 11.1313 10.4656 11.0272 10.4958 10.9282C10.526 10.8292 10.5759 10.7373 10.6426 10.6582C10.7084 10.5832 10.7895 10.5232 10.8803 10.482C10.9712 10.4408 11.0698 10.4194 11.1695 10.4193H13.2771C13.4404 10.4157 13.6 10.4691 13.7282 10.5704C13.8564 10.6717 13.9453 10.8145 13.9796 10.9743C14.0077 11.1663 14.0428 11.356 14.085 11.5434C14.1661 11.9137 14.2741 12.2776 14.4081 12.6323L13.4246 13.0889C13.3405 13.1275 13.2649 13.1823 13.202 13.2502C13.1392 13.3181 13.0903 13.3977 13.0584 13.4846C13.0264 13.5714 13.0118 13.6637 13.0156 13.7561C13.0194 13.8485 13.0414 13.9393 13.0804 14.0233C14.0914 16.189 15.8323 17.9298 17.998 18.9409C18.1691 19.0112 18.3609 19.0112 18.5319 18.9409C18.6195 18.9096 18.7001 18.8611 18.7688 18.7984C18.8375 18.7357 18.8931 18.66 18.9324 18.5756L19.3679 17.5921C19.7311 17.7219 20.1018 17.8299 20.4779 17.9152C20.6653 17.9574 20.8549 17.9925 21.047 18.0206C21.2067 18.0549 21.3496 18.1438 21.4509 18.272C21.5522 18.4002 21.6056 18.5598 21.602 18.7231L21.616 20.915Z" fill="#373737"/>
</svg>
