<svg width="32" height="32" viewBox="0 0 32 32" fill="none" xmlns="http://www.w3.org/2000/svg">
<rect width="32" height="32" rx="16" fill="white"/>
<path d="M20.9 10H11.1C10.543 10 10.0089 10.2212 9.61508 10.6151C9.22125 11.0089 9 11.543 9 12.1V19.1C9 19.657 9.22125 20.1911 9.61508 20.5849C10.0089 20.9788 10.543 21.2 11.1 21.2H20.9C21.457 21.2 21.9911 20.9788 22.3849 20.5849C22.7788 20.1911 23 19.657 23 19.1V12.1C23 11.543 22.7788 11.0089 22.3849 10.6151C21.9911 10.2212 21.457 10 20.9 10ZM11.1 11.4H20.9C21.0857 11.4 21.2637 11.4737 21.395 11.605C21.5263 11.7363 21.6 11.9143 21.6 12.1L16 15.516L10.4 12.1C10.4 11.9143 10.4737 11.7363 10.605 11.605C10.7363 11.4737 10.9143 11.4 11.1 11.4ZM21.6 19.1C21.6 19.2857 21.5263 19.4637 21.395 19.595C21.2637 19.7263 21.0857 19.8 20.9 19.8H11.1C10.9143 19.8 10.7363 19.7263 10.605 19.595C10.4737 19.4637 10.4 19.2857 10.4 19.1V13.696L15.636 16.895C15.7424 16.9564 15.8631 16.9888 15.986 16.9888C16.1089 16.9888 16.2296 16.9564 16.336 16.895L21.6 13.696V19.1Z" fill="#373737"/>
</svg>
