<svg width="134" height="22" viewBox="0 0 134 22" fill="none" xmlns="http://www.w3.org/2000/svg">
<path d="M11 1H8C6.67392 1 5.40215 1.52678 4.46447 2.46447C3.52678 3.40215 3 4.67392 3 6V9H0V13H3V21H7V13H10L11 9H7V6C7 5.73478 7.10536 5.48043 7.29289 5.29289C7.48043 5.10536 7.73478 5 8 5H11V1Z" fill="white"/>
<path d="M46 1H36C33.2386 1 31 3.23858 31 6V16C31 18.7614 33.2386 21 36 21H46C48.7614 21 51 18.7614 51 16V6C51 3.23858 48.7614 1 46 1Z" stroke="white" stroke-width="2" stroke-linecap="round" stroke-linejoin="round"/>
<path d="M45 10.3703C45.1234 11.2025 44.9812 12.0525 44.5937 12.7993C44.2062 13.5461 43.5931 14.1517 42.8416 14.53C42.0901 14.9082 41.2384 15.0399 40.4077 14.9062C39.5771 14.7726 38.8097 14.3804 38.2148 13.7855C37.6199 13.1905 37.2277 12.4232 37.094 11.5925C36.9604 10.7619 37.092 9.9102 37.4703 9.15868C37.8485 8.40716 38.4541 7.79404 39.2009 7.40654C39.9477 7.01904 40.7977 6.87689 41.63 7.0003C42.4789 7.12619 43.2648 7.52176 43.8716 8.12861C44.4785 8.73545 44.8741 9.52138 45 10.3703Z" stroke="white" stroke-width="2" stroke-linecap="round" stroke-linejoin="round"/>
<path d="M46.5 5.5H46.51" stroke="white" stroke-width="2" stroke-linecap="round" stroke-linejoin="round"/>
<path d="M93 2.01006C92.0424 2.68553 90.9821 3.20217 89.86 3.54006C89.2577 2.84757 88.4573 2.35675 87.567 2.13398C86.6767 1.91122 85.7395 1.96725 84.8821 2.29451C84.0247 2.62177 83.2884 3.20446 82.773 3.96377C82.2575 4.72309 81.9877 5.62239 82 6.54006V7.54006C80.2426 7.58562 78.5013 7.19587 76.931 6.4055C75.3607 5.61513 74.0103 4.44869 73 3.01006C73 3.01006 69 12.0101 78 16.0101C75.9405 17.408 73.4872 18.109 71 18.0101C80 23.0101 91 18.0101 91 6.51006C90.9991 6.23151 90.9723 5.95365 90.92 5.68006C91.9406 4.67355 92.6608 3.40277 93 2.01006V2.01006Z" stroke="white" stroke-width="2" stroke-linecap="round" stroke-linejoin="round"/>
<path d="M127 7C128.591 7 130.117 7.63214 131.243 8.75736C132.368 9.88258 133 11.4087 133 13V20H129V13C129 12.4696 128.789 11.9609 128.414 11.5858C128.039 11.2107 127.53 11 127 11C126.47 11 125.961 11.2107 125.586 11.5858C125.211 11.9609 125 12.4696 125 13V20H121V13C121 11.4087 121.632 9.88258 122.757 8.75736C123.883 7.63214 125.409 7 127 7V7Z" stroke="white" stroke-width="2" stroke-linecap="round" stroke-linejoin="round"/>
<path d="M117 8H113V20H117V8Z" stroke="white" stroke-width="2" stroke-linecap="round" stroke-linejoin="round"/>
<path d="M115 5C116.105 5 117 4.10457 117 3C117 1.89543 116.105 1 115 1C113.895 1 113 1.89543 113 3C113 4.10457 113.895 5 115 5Z" stroke="white" stroke-width="2" stroke-linecap="round" stroke-linejoin="round"/>
</svg>
