<svg width="32" height="32" viewBox="0 0 32 32" fill="none" xmlns="http://www.w3.org/2000/svg">
<path d="M23.5 1H8.5C4.35786 1 1 4.35786 1 8.5V23.5C1 27.6421 4.35786 31 8.5 31H23.5C27.6421 31 31 27.6421 31 23.5V8.5C31 4.35786 27.6421 1 23.5 1Z" stroke="white" stroke-width="2" stroke-linecap="round" stroke-linejoin="round"/>
<path d="M21.9999 15.055C22.185 16.3033 21.9718 17.5783 21.3906 18.6985C20.8093 19.8187 19.8896 20.7271 18.7624 21.2945C17.6351 21.8619 16.3576 22.0594 15.1116 21.8589C13.8656 21.6584 12.7146 21.0701 11.8222 20.1777C10.9298 19.2853 10.3415 18.1343 10.141 16.8883C9.94053 15.6423 10.138 14.3648 10.7054 13.2375C11.2728 12.1102 12.1812 11.1906 13.3014 10.6093C14.4216 10.0281 15.6966 9.81485 16.9449 9.99996C18.2183 10.1888 19.3972 10.7822 20.3075 11.6924C21.2177 12.6027 21.8111 13.7816 21.9999 15.055Z" stroke="white" stroke-width="2" stroke-linecap="round" stroke-linejoin="round"/>
<path d="M24.25 7.75H24.265" stroke="white" stroke-width="2" stroke-linecap="round" stroke-linejoin="round"/>
</svg>
