<svg width="32" height="26" viewBox="0 0 32 26" fill="none" xmlns="http://www.w3.org/2000/svg">
<path d="M31 1.01345C29.6942 1.91691 28.2483 2.60792 26.7182 3.05985C25.8969 2.13364 24.8055 1.47716 23.5914 1.1792C22.3774 0.88125 21.0993 0.956198 19.9301 1.39391C18.7609 1.83162 17.757 2.61098 17.0541 3.62658C16.3512 4.64218 15.9832 5.84501 16 7.07241V8.40992C13.6036 8.47087 11.229 7.94957 9.08774 6.89244C6.94647 5.83531 5.10498 4.27517 3.72727 2.35097C3.72727 2.35097 -1.72727 14.3886 10.5455 19.7387C7.73708 21.6085 4.39158 22.5461 1 22.4137C13.2727 29.1013 28.2727 22.4137 28.2727 7.03228C28.2715 6.65972 28.235 6.28808 28.1636 5.92214C29.5554 4.57592 30.5375 2.87623 31 1.01345V1.01345Z" stroke="white" stroke-width="2" stroke-linecap="round" stroke-linejoin="round"/>
</svg>
